<svg width="87" height="25" viewBox="0 0 87 25" fill="none" xmlns="http://www.w3.org/2000/svg">
<path d="M0 17.6662L0.629307 13.4831C2.60176 14.8744 4.49908 15.5747 6.09583 15.5747C7.5423 15.5747 8.14343 14.8284 8.14343 14.0267C8.14343 13.308 7.72076 12.6631 6.06765 12.1471L4.95932 11.7877C1.72825 10.7558 0.432061 8.66422 0.432061 6.2133C0.432061 3.06213 2.93051 0.666504 6.71574 0.666504C8.36885 0.666504 10.1347 1.08113 12.0038 1.92882L11.4027 6.02902C9.53354 5.07999 7.9274 4.56401 6.64999 4.56401C5.43834 4.56401 4.86539 5.20898 4.86539 5.98296C4.86539 6.72929 5.33502 7.32819 6.94117 7.81653L8.02132 8.17588C11.4402 9.26312 12.6989 11.456 12.6989 13.7503C12.6989 16.6435 10.6513 19.4998 6.18036 19.4998C3.73827 19.4998 1.6625 18.6706 0 17.6662Z" fill="#1A1E2C"/>
<path d="M27.3581 6.96266V19.1582H23.2144V17.8473C22.3551 18.8813 21.1329 19.4998 19.5289 19.4998C16.1872 19.4998 13.4661 16.7302 13.4661 13.1943C13.4661 9.65843 16.2158 6.9165 19.5289 6.9165C20.9706 6.9165 22.1259 7.4335 22.9757 8.31055V6.96266H27.3581V6.96266ZM23.0616 13.1943C23.0616 11.6987 21.9159 10.5539 20.4169 10.5539C18.8892 10.5539 17.7435 11.6895 17.7435 13.1943C17.7435 14.6715 18.8892 15.807 20.4169 15.807C21.9063 15.807 23.0616 14.6622 23.0616 13.1943Z" fill="#1A1E2C"/>
<path d="M28.7217 0.989525L33.4092 0.5V19.1667H28.7217V0.989525Z" fill="#1A1E2C"/>
<path d="M40.366 10.7071V14.0269C40.366 15.0017 40.8355 15.5443 41.8683 15.5443C42.3566 15.5351 42.8354 15.4523 43.2861 15.2868V18.8917C42.4411 19.186 41.5491 19.3423 40.6571 19.3331C37.3708 19.3331 35.8497 17.5031 35.8497 14.6431V10.7071H34.4319V7.23096H35.8497V5.19861L40.3754 3.0835V7.23096H43.2955V10.7071H40.366Z" fill="#1A1E2C"/>
<path d="M58.2101 7.5437C58.2101 11.3531 55.1266 14.1337 50.8652 14.1337H49.3139V19.1667H44.5737V1H50.8748C55.1266 1.00927 58.2101 3.76207 58.2101 7.5437ZM53.4316 7.5437C53.4316 5.98656 52.1484 4.89285 50.3768 4.89285H49.3043V10.2502H50.3768C52.1484 10.2502 53.4316 9.12865 53.4316 7.5437Z" fill="#1A1E2C"/>
<path d="M71.8466 6.96266V19.1582H67.7537V17.8473C66.9049 18.8813 65.6978 19.4998 64.1135 19.4998C60.8127 19.4998 58.125 16.7302 58.125 13.1943C58.125 9.65843 60.841 6.9165 64.1135 6.9165C65.5375 6.9165 66.6786 7.4335 67.5179 8.31055V6.96266H71.8466V6.96266ZM67.5934 13.1943C67.5934 11.6987 66.4617 10.5539 64.9811 10.5539C63.4722 10.5539 62.3405 11.6895 62.3405 13.1943C62.3405 14.6715 63.4722 15.807 64.9811 15.807C66.4617 15.807 67.5934 14.6622 67.5934 13.1943Z" fill="#1A1E2C"/>
<path d="M86.2501 6.9165L79.1968 24.4998H74.457L77.2783 18.7653L72.6138 6.9165H77.3254L79.4319 13.7627L81.5385 6.9165H86.2501Z" fill="#1A1E2C"/>
</svg>
